<svg width="193" height="24" viewBox="0 0 193 24" fill="none" xmlns="http://www.w3.org/2000/svg">
<g clip-path="url(#clip0_112_65)">
<path d="M9.26373 0.0384937C4.3734 0.707751 0.702688 4.53208 0.0869562 9.59931C-0.161705 11.6326 0.122479 13.5639 0.945428 15.3868C2.59725 19.0581 6.10218 20.9321 9.3999 19.9059C11.9694 19.1091 13.9113 16.4257 13.9113 13.6658C13.9113 13.0603 13.7811 12.7799 13.491 12.7544C13.2956 12.7353 13.1357 12.85 11.5964 14.0738C9.79065 15.5143 9.55975 15.6545 9.05059 15.5907C8.12107 15.4696 7.41061 14.4307 6.94881 12.5185C6.81856 11.9895 6.78896 11.6899 6.76528 10.7657C6.73567 9.52919 6.8008 8.87906 7.07314 7.86561C7.9849 4.46834 10.7853 1.89967 14.4086 1.14755C14.7283 1.07744 15.0007 1.0137 15.0125 0.994575C15.048 0.956332 14.1718 0.612143 13.5087 0.408179C12.5259 0.108606 11.6911 -0.00612343 10.5189 0.000250451C9.92682 0.00662433 9.36437 0.025746 9.26373 0.0384937Z" fill="#4EA174"/>
<path d="M15.717 3.92018C13.9586 4.17513 12.8337 4.7679 11.7325 6.01718C10.6905 7.19635 10.1103 8.66234 10.0984 10.1602C10.0925 10.9251 10.1458 11.1099 10.3945 11.2119C10.6076 11.3011 10.726 11.231 11.8213 10.3705C12.366 9.93711 13.112 9.35072 13.4672 9.06389C14.2369 8.45838 14.4441 8.33727 14.7993 8.27353C15.9893 8.07594 16.9899 9.5738 17.2918 12.0086C17.3747 12.7034 17.3274 14.2841 17.1971 14.9725C16.8537 16.8209 16.09 18.4271 14.9177 19.7784C13.6093 21.2762 11.543 22.4745 9.47679 22.9271L8.92619 23.0482L9.21037 23.1757C10.5662 23.8067 12.437 24.1062 14.0474 23.966C15.6874 23.8258 16.8893 23.4625 18.2865 22.704C19.3403 22.1367 20.0745 21.5822 20.8856 20.7408C22.123 19.4661 22.8867 18.204 23.461 16.5022C23.8991 15.1956 24.0057 14.4881 23.9998 12.901C23.9998 11.7664 23.9761 11.4668 23.8695 10.9314C23.1354 7.38119 20.8797 4.7934 17.878 4.06678C17.3984 3.95205 16.1018 3.86281 15.717 3.92018Z" fill="#4EA174"/>
<path d="M32.63 18C32.534 18 32.444 17.964 32.36 17.892C32.288 17.82 32.252 17.73 32.252 17.622C32.252 17.574 32.264 17.52 32.288 17.46L36.626 5.85C36.662 5.73 36.728 5.628 36.824 5.544C36.932 5.448 37.076 5.4 37.256 5.4H39.218C39.398 5.4 39.536 5.448 39.632 5.544C39.728 5.628 39.8 5.73 39.848 5.85L44.186 17.46C44.198 17.52 44.204 17.574 44.204 17.622C44.204 17.73 44.168 17.82 44.096 17.892C44.024 17.964 43.94 18 43.844 18H42.278C42.11 18 41.984 17.964 41.9 17.892C41.828 17.808 41.78 17.73 41.756 17.658L40.91 15.462H35.564L34.718 17.658C34.694 17.73 34.64 17.808 34.556 17.892C34.484 17.964 34.364 18 34.196 18H32.63ZM36.194 13.392H40.28L38.228 7.83L36.194 13.392ZM45.0205 18C44.9005 18 44.7985 17.958 44.7145 17.874C44.6305 17.79 44.5885 17.688 44.5885 17.568V9.09C44.5885 8.958 44.6305 8.85 44.7145 8.766C44.7985 8.682 44.9005 8.64 45.0205 8.64H46.4785C46.5985 8.64 46.7005 8.682 46.7845 8.766C46.8805 8.85 46.9285 8.958 46.9285 9.09V9.828C47.2045 9.444 47.5585 9.15 47.9905 8.946C48.4345 8.742 48.9445 8.64 49.5205 8.64H50.2585C50.3905 8.64 50.4925 8.682 50.5645 8.766C50.6485 8.85 50.6905 8.952 50.6905 9.072V10.368C50.6905 10.488 50.6485 10.59 50.5645 10.674C50.4925 10.758 50.3905 10.8 50.2585 10.8H48.8545C48.2785 10.8 47.8285 10.962 47.5045 11.286C47.1925 11.61 47.0365 12.054 47.0365 12.618V17.568C47.0365 17.688 46.9945 17.79 46.9105 17.874C46.8265 17.958 46.7185 18 46.5865 18H45.0205ZM55.2443 18C54.5243 18 53.9183 17.874 53.4263 17.622C52.9343 17.37 52.5683 16.998 52.3283 16.506C52.0883 16.002 51.9683 15.378 51.9683 14.634V10.548H50.5463C50.4263 10.548 50.3243 10.506 50.2403 10.422C50.1563 10.338 50.1143 10.236 50.1143 10.116V9.072C50.1143 8.952 50.1563 8.85 50.2403 8.766C50.3243 8.682 50.4263 8.64 50.5463 8.64H51.9683V5.652C51.9683 5.532 52.0043 5.43 52.0763 5.346C52.1603 5.262 52.2683 5.22 52.4003 5.22H53.8583C53.9783 5.22 54.0803 5.262 54.1643 5.346C54.2483 5.43 54.2903 5.532 54.2903 5.652V8.64H56.5403C56.6603 8.64 56.7623 8.682 56.8463 8.766C56.9303 8.85 56.9723 8.952 56.9723 9.072V10.116C56.9723 10.236 56.9303 10.338 56.8463 10.422C56.7623 10.506 56.6603 10.548 56.5403 10.548H54.2903V14.454C54.2903 14.946 54.3743 15.33 54.5423 15.606C54.7223 15.882 55.0283 16.02 55.4603 16.02H56.7023C56.8223 16.02 56.9243 16.062 57.0083 16.146C57.0923 16.23 57.1343 16.332 57.1343 16.452V17.568C57.1343 17.688 57.0923 17.79 57.0083 17.874C56.9243 17.958 56.8223 18 56.7023 18H55.2443ZM58.2991 18C58.1791 18 58.0771 17.958 57.9931 17.874C57.9091 17.79 57.8671 17.688 57.8671 17.568V5.85C57.8671 5.718 57.9091 5.61 57.9931 5.526C58.0771 5.442 58.1791 5.4 58.2991 5.4H63.1231C64.0591 5.4 64.8751 5.55 65.5711 5.85C66.2671 6.138 66.8071 6.582 67.1911 7.182C67.5751 7.77 67.7671 8.508 67.7671 9.396C67.7671 10.296 67.5751 11.04 67.1911 11.628C66.8071 12.204 66.2671 12.636 65.5711 12.924C64.8751 13.212 64.0591 13.356 63.1231 13.356H60.4411V17.568C60.4411 17.688 60.3991 17.79 60.3151 17.874C60.2431 17.958 60.1411 18 60.0091 18H58.2991ZM60.4051 11.358H63.0331C63.7291 11.358 64.2631 11.196 64.6351 10.872C65.0071 10.536 65.1931 10.044 65.1931 9.396C65.1931 8.796 65.0191 8.316 64.6711 7.956C64.3231 7.584 63.7771 7.398 63.0331 7.398H60.4051V11.358ZM72.4533 18.18C71.4933 18.18 70.6833 18.012 70.0233 17.676C69.3753 17.34 68.8773 16.866 68.5293 16.254C68.1933 15.642 68.0013 14.928 67.9533 14.112C67.9413 13.896 67.9353 13.632 67.9353 13.32C67.9353 13.008 67.9413 12.744 67.9533 12.528C68.0013 11.7 68.1993 10.986 68.5473 10.386C68.9073 9.774 69.4113 9.3 70.0593 8.964C70.7193 8.628 71.5173 8.46 72.4533 8.46C73.3893 8.46 74.1813 8.628 74.8293 8.964C75.4893 9.3 75.9933 9.774 76.3413 10.386C76.7013 10.986 76.9053 11.7 76.9533 12.528C76.9653 12.744 76.9713 13.008 76.9713 13.32C76.9713 13.632 76.9653 13.896 76.9533 14.112C76.9053 14.928 76.7073 15.642 76.3593 16.254C76.0233 16.866 75.5253 17.34 74.8653 17.676C74.2173 18.012 73.4133 18.18 72.4533 18.18ZM72.4533 16.398C73.0893 16.398 73.5813 16.2 73.9293 15.804C74.2773 15.396 74.4693 14.802 74.5053 14.022C74.5173 13.842 74.5233 13.608 74.5233 13.32C74.5233 13.032 74.5173 12.798 74.5053 12.618C74.4693 11.85 74.2773 11.262 73.9293 10.854C73.5813 10.446 73.0893 10.242 72.4533 10.242C71.8173 10.242 71.3253 10.446 70.9773 10.854C70.6293 11.262 70.4373 11.85 70.4013 12.618C70.3893 12.798 70.3833 13.032 70.3833 13.32C70.3833 13.608 70.3893 13.842 70.4013 14.022C70.4373 14.802 70.6293 15.396 70.9773 15.804C71.3253 16.2 71.8173 16.398 72.4533 16.398ZM78.3177 18C78.1977 18 78.0957 17.958 78.0117 17.874C77.9277 17.79 77.8857 17.688 77.8857 17.568V9.09C77.8857 8.958 77.9277 8.85 78.0117 8.766C78.0957 8.682 78.1977 8.64 78.3177 8.64H79.7757C79.8957 8.64 79.9977 8.682 80.0817 8.766C80.1777 8.85 80.2257 8.958 80.2257 9.09V9.828C80.5017 9.444 80.8557 9.15 81.2877 8.946C81.7317 8.742 82.2417 8.64 82.8177 8.64H83.5557C83.6877 8.64 83.7897 8.682 83.8617 8.766C83.9457 8.85 83.9877 8.952 83.9877 9.072V10.368C83.9877 10.488 83.9457 10.59 83.8617 10.674C83.7897 10.758 83.6877 10.8 83.5557 10.8H82.1517C81.5757 10.8 81.1257 10.962 80.8017 11.286C80.4897 11.61 80.3337 12.054 80.3337 12.618V17.568C80.3337 17.688 80.2917 17.79 80.2077 17.874C80.1237 17.958 80.0157 18 79.8837 18H78.3177ZM88.5415 18C87.8215 18 87.2155 17.874 86.7235 17.622C86.2315 17.37 85.8655 16.998 85.6255 16.506C85.3855 16.002 85.2655 15.378 85.2655 14.634V10.548H83.8435C83.7235 10.548 83.6215 10.506 83.5375 10.422C83.4535 10.338 83.4115 10.236 83.4115 10.116V9.072C83.4115 8.952 83.4535 8.85 83.5375 8.766C83.6215 8.682 83.7235 8.64 83.8435 8.64H85.2655V5.652C85.2655 5.532 85.3015 5.43 85.3735 5.346C85.4575 5.262 85.5655 5.22 85.6975 5.22H87.1555C87.2755 5.22 87.3775 5.262 87.4615 5.346C87.5455 5.43 87.5875 5.532 87.5875 5.652V8.64H89.8375C89.9575 8.64 90.0595 8.682 90.1435 8.766C90.2275 8.85 90.2695 8.952 90.2695 9.072V10.116C90.2695 10.236 90.2275 10.338 90.1435 10.422C90.0595 10.506 89.9575 10.548 89.8375 10.548H87.5875V14.454C87.5875 14.946 87.6715 15.33 87.8395 15.606C88.0195 15.882 88.3255 16.02 88.7575 16.02H89.9995C90.1195 16.02 90.2215 16.062 90.3055 16.146C90.3895 16.23 90.4315 16.332 90.4315 16.452V17.568C90.4315 17.688 90.3895 17.79 90.3055 17.874C90.2215 17.958 90.1195 18 89.9995 18H88.5415Z" fill="white"/>
<path d="M100.54 17C100.437 17 100.358 16.972 100.302 16.916C100.246 16.8507 100.218 16.7713 100.218 16.678V7.536C100.218 7.43333 100.246 7.354 100.302 7.298C100.358 7.23267 100.437 7.2 100.54 7.2H103.718C104.679 7.2 105.454 7.34467 106.042 7.634C106.63 7.92333 107.059 8.35267 107.33 8.922C107.601 9.482 107.741 10.1727 107.75 10.994C107.759 11.414 107.764 11.7827 107.764 12.1C107.764 12.4173 107.759 12.7813 107.75 13.192C107.731 14.0507 107.587 14.7647 107.316 15.334C107.055 15.894 106.635 16.314 106.056 16.594C105.487 16.8647 104.731 17 103.788 17H100.54ZM101.59 15.81H103.718C104.362 15.81 104.875 15.7213 105.258 15.544C105.641 15.3667 105.916 15.082 106.084 14.69C106.261 14.298 106.355 13.78 106.364 13.136C106.383 12.856 106.392 12.6133 106.392 12.408C106.392 12.1933 106.392 11.9833 106.392 11.778C106.392 11.5633 106.383 11.3207 106.364 11.05C106.345 10.1447 106.131 9.47733 105.72 9.048C105.309 8.60933 104.619 8.39 103.648 8.39H101.59V15.81ZM111.746 17.14C110.785 17.14 110.02 16.846 109.45 16.258C108.881 15.6607 108.568 14.8487 108.512 13.822C108.503 13.7007 108.498 13.5467 108.498 13.36C108.498 13.164 108.503 13.0053 108.512 12.884C108.55 12.2213 108.704 11.6427 108.974 11.148C109.245 10.644 109.614 10.2567 110.08 9.986C110.556 9.71533 111.112 9.58 111.746 9.58C112.456 9.58 113.048 9.72933 113.524 10.028C114.01 10.3267 114.378 10.7513 114.63 11.302C114.882 11.8527 115.008 12.4967 115.008 13.234V13.472C115.008 13.5747 114.976 13.654 114.91 13.71C114.854 13.766 114.78 13.794 114.686 13.794H109.842C109.842 13.8033 109.842 13.822 109.842 13.85C109.842 13.878 109.842 13.9013 109.842 13.92C109.861 14.3027 109.945 14.662 110.094 14.998C110.244 15.3247 110.458 15.5907 110.738 15.796C111.018 16.0013 111.354 16.104 111.746 16.104C112.082 16.104 112.362 16.0527 112.586 15.95C112.81 15.8473 112.992 15.7353 113.132 15.614C113.272 15.4833 113.366 15.3853 113.412 15.32C113.496 15.1987 113.562 15.1287 113.608 15.11C113.655 15.082 113.73 15.068 113.832 15.068H114.504C114.598 15.068 114.672 15.096 114.728 15.152C114.794 15.1987 114.822 15.2687 114.812 15.362C114.803 15.502 114.728 15.6747 114.588 15.88C114.448 16.076 114.248 16.272 113.986 16.468C113.725 16.664 113.408 16.8273 113.034 16.958C112.661 17.0793 112.232 17.14 111.746 17.14ZM109.842 12.828H113.678V12.786C113.678 12.366 113.599 11.9927 113.44 11.666C113.291 11.3393 113.072 11.0827 112.782 10.896C112.493 10.7 112.148 10.602 111.746 10.602C111.345 10.602 111 10.7 110.71 10.896C110.43 11.0827 110.216 11.3393 110.066 11.666C109.917 11.9927 109.842 12.366 109.842 12.786V12.828ZM118.13 17C117.99 17 117.878 16.9673 117.794 16.902C117.72 16.8367 117.659 16.7527 117.612 16.65L115.022 10.154C115.004 10.1073 114.994 10.0607 114.994 10.014C114.994 9.93 115.022 9.86 115.078 9.804C115.134 9.748 115.204 9.72 115.288 9.72H115.96C116.063 9.72 116.142 9.748 116.198 9.804C116.254 9.86 116.287 9.91133 116.296 9.958L118.438 15.474L120.566 9.958C120.585 9.91133 120.618 9.86 120.664 9.804C120.72 9.748 120.8 9.72 120.902 9.72H121.588C121.663 9.72 121.728 9.748 121.784 9.804C121.85 9.86 121.882 9.93 121.882 10.014C121.882 10.0607 121.873 10.1073 121.854 10.154L119.25 16.65C119.213 16.7527 119.152 16.8367 119.068 16.902C118.994 16.9673 118.882 17 118.732 17H118.13ZM125.146 17.14C124.185 17.14 123.42 16.846 122.85 16.258C122.281 15.6607 121.968 14.8487 121.912 13.822C121.903 13.7007 121.898 13.5467 121.898 13.36C121.898 13.164 121.903 13.0053 121.912 12.884C121.95 12.2213 122.104 11.6427 122.374 11.148C122.645 10.644 123.014 10.2567 123.48 9.986C123.956 9.71533 124.512 9.58 125.146 9.58C125.856 9.58 126.448 9.72933 126.924 10.028C127.41 10.3267 127.778 10.7513 128.03 11.302C128.282 11.8527 128.408 12.4967 128.408 13.234V13.472C128.408 13.5747 128.376 13.654 128.31 13.71C128.254 13.766 128.18 13.794 128.086 13.794H123.242C123.242 13.8033 123.242 13.822 123.242 13.85C123.242 13.878 123.242 13.9013 123.242 13.92C123.261 14.3027 123.345 14.662 123.494 14.998C123.644 15.3247 123.858 15.5907 124.138 15.796C124.418 16.0013 124.754 16.104 125.146 16.104C125.482 16.104 125.762 16.0527 125.986 15.95C126.21 15.8473 126.392 15.7353 126.532 15.614C126.672 15.4833 126.766 15.3853 126.812 15.32C126.896 15.1987 126.962 15.1287 127.008 15.11C127.055 15.082 127.13 15.068 127.232 15.068H127.904C127.998 15.068 128.072 15.096 128.128 15.152C128.194 15.1987 128.222 15.2687 128.212 15.362C128.203 15.502 128.128 15.6747 127.988 15.88C127.848 16.076 127.648 16.272 127.386 16.468C127.125 16.664 126.808 16.8273 126.434 16.958C126.061 17.0793 125.632 17.14 125.146 17.14ZM123.242 12.828H127.078V12.786C127.078 12.366 126.999 11.9927 126.84 11.666C126.691 11.3393 126.472 11.0827 126.182 10.896C125.893 10.7 125.548 10.602 125.146 10.602C124.745 10.602 124.4 10.7 124.11 10.896C123.83 11.0827 123.616 11.3393 123.466 11.666C123.317 11.9927 123.242 12.366 123.242 12.786V12.828ZM129.578 17C129.485 17 129.406 16.972 129.34 16.916C129.284 16.8507 129.256 16.7713 129.256 16.678V7.382C129.256 7.28867 129.284 7.214 129.34 7.158C129.406 7.09267 129.485 7.06 129.578 7.06H130.236C130.339 7.06 130.418 7.09267 130.474 7.158C130.53 7.214 130.558 7.28867 130.558 7.382V16.678C130.558 16.7713 130.53 16.8507 130.474 16.916C130.418 16.972 130.339 17 130.236 17H129.578ZM134.789 17.14C134.079 17.14 133.487 17.0047 133.011 16.734C132.535 16.4633 132.171 16.09 131.919 15.614C131.667 15.1287 131.527 14.578 131.499 13.962C131.489 13.8033 131.485 13.6027 131.485 13.36C131.485 13.108 131.489 12.9073 131.499 12.758C131.527 12.1327 131.667 11.582 131.919 11.106C132.18 10.63 132.549 10.2567 133.025 9.986C133.501 9.71533 134.089 9.58 134.789 9.58C135.489 9.58 136.077 9.71533 136.553 9.986C137.029 10.2567 137.393 10.63 137.645 11.106C137.906 11.582 138.051 12.1327 138.079 12.758C138.088 12.9073 138.093 13.108 138.093 13.36C138.093 13.6027 138.088 13.8033 138.079 13.962C138.051 14.578 137.911 15.1287 137.659 15.614C137.407 16.09 137.043 16.4633 136.567 16.734C136.091 17.0047 135.498 17.14 134.789 17.14ZM134.789 16.062C135.367 16.062 135.829 15.88 136.175 15.516C136.52 15.1427 136.707 14.6013 136.735 13.892C136.744 13.752 136.749 13.5747 136.749 13.36C136.749 13.1453 136.744 12.968 136.735 12.828C136.707 12.1187 136.52 11.582 136.175 11.218C135.829 10.8447 135.367 10.658 134.789 10.658C134.21 10.658 133.743 10.8447 133.389 11.218C133.043 11.582 132.861 12.1187 132.843 12.828C132.833 12.968 132.829 13.1453 132.829 13.36C132.829 13.5747 132.833 13.752 132.843 13.892C132.861 14.6013 133.043 15.1427 133.389 15.516C133.743 15.88 134.21 16.062 134.789 16.062ZM139.342 19.66C139.248 19.66 139.169 19.6273 139.104 19.562C139.048 19.506 139.02 19.4313 139.02 19.338V10.042C139.02 9.94867 139.048 9.874 139.104 9.818C139.169 9.75267 139.248 9.72 139.342 9.72H139.986C140.079 9.72 140.154 9.75267 140.21 9.818C140.275 9.874 140.308 9.94867 140.308 10.042V10.658C140.532 10.35 140.83 10.0933 141.204 9.888C141.577 9.68267 142.044 9.58 142.604 9.58C143.126 9.58 143.57 9.66867 143.934 9.846C144.307 10.0233 144.61 10.266 144.844 10.574C145.086 10.882 145.268 11.232 145.39 11.624C145.511 12.016 145.576 12.436 145.586 12.884C145.595 13.0333 145.6 13.192 145.6 13.36C145.6 13.528 145.595 13.6867 145.586 13.836C145.576 14.2747 145.511 14.6947 145.39 15.096C145.268 15.488 145.086 15.838 144.844 16.146C144.61 16.4447 144.307 16.6873 143.934 16.874C143.57 17.0513 143.126 17.14 142.604 17.14C142.062 17.14 141.605 17.042 141.232 16.846C140.868 16.6407 140.569 16.3887 140.336 16.09V19.338C140.336 19.4313 140.308 19.506 140.252 19.562C140.196 19.6273 140.116 19.66 140.014 19.66H139.342ZM142.31 16.006C142.795 16.006 143.173 15.9033 143.444 15.698C143.724 15.4833 143.924 15.208 144.046 14.872C144.167 14.5267 144.237 14.158 144.256 13.766C144.265 13.4953 144.265 13.2247 144.256 12.954C144.237 12.562 144.167 12.198 144.046 11.862C143.924 11.5167 143.724 11.2413 143.444 11.036C143.173 10.8213 142.795 10.714 142.31 10.714C141.852 10.714 141.479 10.8213 141.19 11.036C140.91 11.2507 140.7 11.526 140.56 11.862C140.429 12.1887 140.354 12.5247 140.336 12.87C140.326 13.0193 140.322 13.1967 140.322 13.402C140.322 13.6073 140.326 13.7893 140.336 13.948C140.345 14.2747 140.42 14.5967 140.56 14.914C140.709 15.2313 140.928 15.4927 141.218 15.698C141.507 15.9033 141.871 16.006 142.31 16.006ZM149.404 17.14C148.442 17.14 147.677 16.846 147.108 16.258C146.538 15.6607 146.226 14.8487 146.17 13.822C146.16 13.7007 146.156 13.5467 146.156 13.36C146.156 13.164 146.16 13.0053 146.17 12.884C146.207 12.2213 146.361 11.6427 146.632 11.148C146.902 10.644 147.271 10.2567 147.738 9.986C148.214 9.71533 148.769 9.58 149.404 9.58C150.113 9.58 150.706 9.72933 151.182 10.028C151.667 10.3267 152.036 10.7513 152.288 11.302C152.54 11.8527 152.666 12.4967 152.666 13.234V13.472C152.666 13.5747 152.633 13.654 152.568 13.71C152.512 13.766 152.437 13.794 152.344 13.794H147.5C147.5 13.8033 147.5 13.822 147.5 13.85C147.5 13.878 147.5 13.9013 147.5 13.92C147.518 14.3027 147.602 14.662 147.752 14.998C147.901 15.3247 148.116 15.5907 148.396 15.796C148.676 16.0013 149.012 16.104 149.404 16.104C149.74 16.104 150.02 16.0527 150.244 15.95C150.468 15.8473 150.65 15.7353 150.79 15.614C150.93 15.4833 151.023 15.3853 151.07 15.32C151.154 15.1987 151.219 15.1287 151.266 15.11C151.312 15.082 151.387 15.068 151.49 15.068H152.162C152.255 15.068 152.33 15.096 152.386 15.152C152.451 15.1987 152.479 15.2687 152.47 15.362C152.46 15.502 152.386 15.6747 152.246 15.88C152.106 16.076 151.905 16.272 151.644 16.468C151.382 16.664 151.065 16.8273 150.692 16.958C150.318 17.0793 149.889 17.14 149.404 17.14ZM147.5 12.828H151.336V12.786C151.336 12.366 151.256 11.9927 151.098 11.666C150.948 11.3393 150.729 11.0827 150.44 10.896C150.15 10.7 149.805 10.602 149.404 10.602C149.002 10.602 148.657 10.7 148.368 10.896C148.088 11.0827 147.873 11.3393 147.724 11.666C147.574 11.9927 147.5 12.366 147.5 12.786V12.828ZM153.822 17C153.728 17 153.649 16.972 153.584 16.916C153.528 16.8507 153.5 16.7713 153.5 16.678V10.056C153.5 9.96267 153.528 9.88333 153.584 9.818C153.649 9.75267 153.728 9.72 153.822 9.72H154.466C154.559 9.72 154.638 9.75267 154.704 9.818C154.769 9.88333 154.802 9.96267 154.802 10.056V10.672C154.988 10.3547 155.245 10.1167 155.572 9.958C155.898 9.79933 156.29 9.72 156.748 9.72H157.308C157.401 9.72 157.476 9.75267 157.532 9.818C157.588 9.874 157.616 9.94867 157.616 10.042V10.616C157.616 10.7093 157.588 10.784 157.532 10.84C157.476 10.896 157.401 10.924 157.308 10.924H156.468C155.964 10.924 155.567 11.0733 155.278 11.372C154.988 11.6613 154.844 12.058 154.844 12.562V16.678C154.844 16.7713 154.811 16.8507 154.746 16.916C154.68 16.972 154.601 17 154.508 17H153.822ZM160.745 17C160.643 17 160.563 16.972 160.507 16.916C160.451 16.8507 160.423 16.7713 160.423 16.678V7.536C160.423 7.43333 160.451 7.354 160.507 7.298C160.563 7.23267 160.643 7.2 160.745 7.2H164.301C164.992 7.2 165.589 7.312 166.093 7.536C166.607 7.76 167.003 8.096 167.283 8.544C167.563 8.98267 167.703 9.53333 167.703 10.196C167.703 10.8587 167.563 11.4093 167.283 11.848C167.003 12.2867 166.607 12.618 166.093 12.842C165.589 13.066 164.992 13.178 164.301 13.178H161.823V16.678C161.823 16.7713 161.791 16.8507 161.725 16.916C161.669 16.972 161.59 17 161.487 17H160.745ZM161.809 12.002H164.231C164.922 12.002 165.44 11.848 165.785 11.54C166.131 11.232 166.303 10.784 166.303 10.196C166.303 9.61733 166.135 9.16933 165.799 8.852C165.463 8.53467 164.941 8.376 164.231 8.376H161.809V12.002ZM171.27 17.14C170.561 17.14 169.968 17.0047 169.492 16.734C169.016 16.4633 168.652 16.09 168.4 15.614C168.148 15.1287 168.008 14.578 167.98 13.962C167.971 13.8033 167.966 13.6027 167.966 13.36C167.966 13.108 167.971 12.9073 167.98 12.758C168.008 12.1327 168.148 11.582 168.4 11.106C168.662 10.63 169.03 10.2567 169.506 9.986C169.982 9.71533 170.57 9.58 171.27 9.58C171.97 9.58 172.558 9.71533 173.034 9.986C173.51 10.2567 173.874 10.63 174.126 11.106C174.388 11.582 174.532 12.1327 174.56 12.758C174.57 12.9073 174.574 13.108 174.574 13.36C174.574 13.6027 174.57 13.8033 174.56 13.962C174.532 14.578 174.392 15.1287 174.14 15.614C173.888 16.09 173.524 16.4633 173.048 16.734C172.572 17.0047 171.98 17.14 171.27 17.14ZM171.27 16.062C171.849 16.062 172.311 15.88 172.656 15.516C173.002 15.1427 173.188 14.6013 173.216 13.892C173.226 13.752 173.23 13.5747 173.23 13.36C173.23 13.1453 173.226 12.968 173.216 12.828C173.188 12.1187 173.002 11.582 172.656 11.218C172.311 10.8447 171.849 10.658 171.27 10.658C170.692 10.658 170.225 10.8447 169.87 11.218C169.525 11.582 169.343 12.1187 169.324 12.828C169.315 12.968 169.31 13.1453 169.31 13.36C169.31 13.5747 169.315 13.752 169.324 13.892C169.343 14.6013 169.525 15.1427 169.87 15.516C170.225 15.88 170.692 16.062 171.27 16.062ZM175.809 17C175.716 17 175.637 16.972 175.571 16.916C175.515 16.8507 175.487 16.7713 175.487 16.678V10.056C175.487 9.96267 175.515 9.88333 175.571 9.818C175.637 9.75267 175.716 9.72 175.809 9.72H176.453C176.547 9.72 176.626 9.75267 176.691 9.818C176.757 9.88333 176.789 9.96267 176.789 10.056V10.672C176.976 10.3547 177.233 10.1167 177.559 9.958C177.886 9.79933 178.278 9.72 178.735 9.72H179.295C179.389 9.72 179.463 9.75267 179.519 9.818C179.575 9.874 179.603 9.94867 179.603 10.042V10.616C179.603 10.7093 179.575 10.784 179.519 10.84C179.463 10.896 179.389 10.924 179.295 10.924H178.455C177.951 10.924 177.555 11.0733 177.265 11.372C176.976 11.6613 176.831 12.058 176.831 12.562V16.678C176.831 16.7713 176.799 16.8507 176.733 16.916C176.668 16.972 176.589 17 176.495 17H175.809ZM182.808 17C182.285 17 181.86 16.902 181.534 16.706C181.207 16.5007 180.969 16.216 180.82 15.852C180.67 15.4787 180.596 15.04 180.596 14.536V10.84H179.504C179.41 10.84 179.331 10.812 179.266 10.756C179.21 10.6907 179.182 10.6113 179.182 10.518V10.042C179.182 9.94867 179.21 9.874 179.266 9.818C179.331 9.75267 179.41 9.72 179.504 9.72H180.596V7.382C180.596 7.28867 180.624 7.214 180.68 7.158C180.745 7.09267 180.824 7.06 180.918 7.06H181.576C181.669 7.06 181.744 7.09267 181.8 7.158C181.865 7.214 181.898 7.28867 181.898 7.382V9.72H183.634C183.727 9.72 183.802 9.75267 183.858 9.818C183.923 9.874 183.956 9.94867 183.956 10.042V10.518C183.956 10.6113 183.923 10.6907 183.858 10.756C183.802 10.812 183.727 10.84 183.634 10.84H181.898V14.438C181.898 14.8767 181.972 15.222 182.122 15.474C182.271 15.726 182.537 15.852 182.92 15.852H183.774C183.867 15.852 183.942 15.8847 183.998 15.95C184.063 16.006 184.096 16.0807 184.096 16.174V16.678C184.096 16.7713 184.063 16.8507 183.998 16.916C183.942 16.972 183.867 17 183.774 17H182.808ZM186.624 17.14C186.158 17.14 185.733 17.0467 185.35 16.86C184.968 16.6733 184.66 16.4213 184.426 16.104C184.193 15.7867 184.076 15.4273 184.076 15.026C184.076 14.382 184.338 13.8687 184.86 13.486C185.383 13.1033 186.064 12.8513 186.904 12.73L188.99 12.436V12.03C188.99 11.582 188.86 11.232 188.598 10.98C188.346 10.728 187.931 10.602 187.352 10.602C186.932 10.602 186.592 10.686 186.33 10.854C186.078 11.022 185.901 11.2367 185.798 11.498C185.742 11.638 185.644 11.708 185.504 11.708H184.874C184.772 11.708 184.692 11.68 184.636 11.624C184.59 11.5587 184.566 11.484 184.566 11.4C184.566 11.26 184.618 11.0873 184.72 10.882C184.832 10.6767 185 10.476 185.224 10.28C185.448 10.084 185.733 9.92067 186.078 9.79C186.433 9.65 186.862 9.58 187.366 9.58C187.926 9.58 188.398 9.65467 188.78 9.804C189.163 9.944 189.462 10.1353 189.676 10.378C189.9 10.6207 190.059 10.896 190.152 11.204C190.255 11.512 190.306 11.8247 190.306 12.142V16.678C190.306 16.7713 190.274 16.8507 190.208 16.916C190.152 16.972 190.078 17 189.984 17H189.34C189.238 17 189.158 16.972 189.102 16.916C189.046 16.8507 189.018 16.7713 189.018 16.678V16.076C188.897 16.244 188.734 16.412 188.528 16.58C188.323 16.7387 188.066 16.874 187.758 16.986C187.45 17.0887 187.072 17.14 186.624 17.14ZM186.918 16.09C187.301 16.09 187.651 16.0107 187.968 15.852C188.286 15.684 188.533 15.4273 188.71 15.082C188.897 14.7367 188.99 14.3027 188.99 13.78V13.388L187.366 13.626C186.704 13.7193 186.204 13.878 185.868 14.102C185.532 14.3167 185.364 14.592 185.364 14.928C185.364 15.1893 185.439 15.4087 185.588 15.586C185.747 15.754 185.943 15.88 186.176 15.964C186.419 16.048 186.666 16.09 186.918 16.09ZM191.815 17C191.722 17 191.642 16.972 191.577 16.916C191.521 16.8507 191.493 16.7713 191.493 16.678V7.382C191.493 7.28867 191.521 7.214 191.577 7.158C191.642 7.09267 191.722 7.06 191.815 7.06H192.473C192.576 7.06 192.655 7.09267 192.711 7.158C192.767 7.214 192.795 7.28867 192.795 7.382V16.678C192.795 16.7713 192.767 16.8507 192.711 16.916C192.655 16.972 192.576 17 192.473 17H191.815Z" fill="#8F8F8F"/>
</g>
<defs>
<clipPath id="clip0_112_65">
<rect width="193" height="24" fill="white"/>
</clipPath>
</defs>
</svg>
