<svg width="150" height="24" viewBox="0 0 150 24" fill="none" xmlns="http://www.w3.org/2000/svg">
<g clip-path="url(#clip0_112_23)">
<path d="M60.624 21V19.978H63.41C64.1193 19.978 64.7213 19.8193 65.216 19.502C65.72 19.1753 66.1027 18.7227 66.364 18.144C66.6347 17.5653 66.77 16.884 66.77 16.1C66.77 15.3067 66.6347 14.6207 66.364 14.042C66.1027 13.4633 65.72 13.0153 65.216 12.698C64.7213 12.3807 64.1193 12.222 63.41 12.222H60.624V11.2H63.41C64.334 11.2 65.1273 11.4053 65.79 11.816C66.4527 12.2267 66.9613 12.8007 67.316 13.538C67.6707 14.266 67.848 15.12 67.848 16.1C67.848 17.08 67.6707 17.9387 67.316 18.676C66.9613 19.404 66.4527 19.9733 65.79 20.384C65.1273 20.7947 64.334 21 63.41 21H60.624ZM60.12 21V11.2H61.17V21H60.12ZM71.665 21.168C71.0023 21.168 70.4143 21.014 69.901 20.706C69.3876 20.398 68.9863 19.9687 68.697 19.418C68.4076 18.8673 68.263 18.228 68.263 17.5C68.263 16.772 68.403 16.1327 68.683 15.582C68.9723 15.0313 69.369 14.602 69.873 14.294C70.3863 13.986 70.9743 13.832 71.637 13.832C72.2903 13.832 72.8596 13.9907 73.345 14.308C73.8396 14.616 74.227 15.0547 74.507 15.624C74.787 16.184 74.927 16.8373 74.927 17.584V17.71L74.717 17.906H68.879V16.884H74.311L73.849 17.08C73.8116 16.6133 73.6903 16.2167 73.485 15.89C73.2796 15.554 73.0183 15.2973 72.701 15.12C72.3836 14.9427 72.029 14.854 71.637 14.854C71.2076 14.854 70.8156 14.9613 70.461 15.176C70.1063 15.3813 69.8263 15.6753 69.621 16.058C69.4156 16.4407 69.313 16.884 69.313 17.388V17.57C69.313 18.074 69.411 18.522 69.607 18.914C69.8123 19.2967 70.0923 19.6 70.447 19.824C70.8016 20.0387 71.2076 20.146 71.665 20.146C72.1223 20.146 72.5143 20.0387 72.841 19.824C73.1676 19.6093 73.4243 19.3153 73.611 18.942H73.765L74.647 19.334C74.3856 19.894 73.9936 20.342 73.471 20.678C72.9576 21.0047 72.3556 21.168 71.665 21.168ZM77.7148 21V19.936L80.1228 14H81.2148V14.112L78.3728 21H77.7148ZM77.3508 21L74.5088 14.112V14H75.6008L78.0088 19.936V21H77.3508ZM84.2037 21.168C83.5411 21.168 82.9531 21.014 82.4397 20.706C81.9264 20.398 81.5251 19.9687 81.2357 19.418C80.9464 18.8673 80.8017 18.228 80.8017 17.5C80.8017 16.772 80.9417 16.1327 81.2217 15.582C81.5111 15.0313 81.9077 14.602 82.4117 14.294C82.9251 13.986 83.5131 13.832 84.1757 13.832C84.8291 13.832 85.3984 13.9907 85.8837 14.308C86.3784 14.616 86.7657 15.0547 87.0457 15.624C87.3257 16.184 87.4657 16.8373 87.4657 17.584V17.71L87.2557 17.906H81.4177V16.884H86.8497L86.3877 17.08C86.3504 16.6133 86.2291 16.2167 86.0237 15.89C85.8184 15.554 85.5571 15.2973 85.2397 15.12C84.9224 14.9427 84.5677 14.854 84.1757 14.854C83.7464 14.854 83.3544 14.9613 82.9997 15.176C82.6451 15.3813 82.3651 15.6753 82.1597 16.058C81.9544 16.4407 81.8517 16.884 81.8517 17.388V17.57C81.8517 18.074 81.9497 18.522 82.1457 18.914C82.3511 19.2967 82.6311 19.6 82.9857 19.824C83.3404 20.0387 83.7464 20.146 84.2037 20.146C84.6611 20.146 85.0531 20.0387 85.3797 19.824C85.7064 19.6093 85.9631 19.3153 86.1497 18.942H86.3037L87.1857 19.334C86.9244 19.894 86.5324 20.342 86.0097 20.678C85.4964 21.0047 84.8944 21.168 84.2037 21.168ZM88.231 21V10.92L89.239 10.794L89.281 10.906V21H88.231ZM93.4895 21.168C92.8175 21.168 92.2202 21.014 91.6975 20.706C91.1842 20.398 90.7782 19.9687 90.4795 19.418C90.1902 18.8673 90.0455 18.228 90.0455 17.5C90.0455 16.772 90.1902 16.1327 90.4795 15.582C90.7782 15.0313 91.1842 14.602 91.6975 14.294C92.2202 13.986 92.8175 13.832 93.4895 13.832C94.1709 13.832 94.7682 13.986 95.2815 14.294C95.7949 14.602 96.1962 15.0313 96.4855 15.582C96.7842 16.1327 96.9335 16.772 96.9335 17.5C96.9335 18.228 96.7842 18.8673 96.4855 19.418C96.1962 19.9687 95.7949 20.398 95.2815 20.706C94.7682 21.014 94.1709 21.168 93.4895 21.168ZM93.4895 20.146C93.9562 20.146 94.3669 20.0387 94.7215 19.824C95.0855 19.6 95.3702 19.292 95.5755 18.9C95.7809 18.4987 95.8835 18.032 95.8835 17.5C95.8835 16.9587 95.7809 16.492 95.5755 16.1C95.3702 15.708 95.0855 15.4047 94.7215 15.19C94.3669 14.966 93.9562 14.854 93.4895 14.854C93.0229 14.854 92.6075 14.966 92.2435 15.19C91.8889 15.4047 91.6089 15.708 91.4035 16.1C91.1982 16.492 91.0955 16.9587 91.0955 17.5C91.0955 18.032 91.1982 18.4987 91.4035 18.9C91.6089 19.292 91.8889 19.6 92.2435 19.824C92.6075 20.0387 93.0229 20.146 93.4895 20.146ZM101.137 21.168C100.661 21.168 100.223 21.0747 99.8213 20.888C99.4199 20.692 99.0746 20.4213 98.7853 20.076C98.4959 19.7307 98.2813 19.3293 98.1413 18.872V16.128C98.2813 15.6613 98.4959 15.26 98.7853 14.924C99.0746 14.5787 99.4199 14.3127 99.8213 14.126C100.223 13.93 100.661 13.832 101.137 13.832C101.763 13.832 102.323 13.9907 102.817 14.308C103.312 14.6253 103.704 15.0593 103.993 15.61C104.292 16.1607 104.441 16.7907 104.441 17.5C104.441 18.2093 104.292 18.8393 103.993 19.39C103.704 19.9407 103.312 20.3747 102.817 20.692C102.323 21.0093 101.763 21.168 101.137 21.168ZM97.6373 23.8V14H98.6593V16.618L98.4913 17.5L98.6873 18.382V23.8H97.6373ZM101.095 20.146C101.543 20.146 101.94 20.034 102.285 19.81C102.631 19.586 102.901 19.278 103.097 18.886C103.293 18.4847 103.391 18.0227 103.391 17.5C103.391 16.9773 103.293 16.52 103.097 16.128C102.901 15.7267 102.631 15.414 102.285 15.19C101.94 14.966 101.543 14.854 101.095 14.854C100.638 14.854 100.227 14.966 99.8633 15.19C99.4993 15.414 99.2099 15.7267 98.9953 16.128C98.7899 16.52 98.6873 16.9773 98.6873 17.5C98.6873 18.0227 98.7899 18.4847 98.9953 18.886C99.2099 19.278 99.4993 19.586 99.8633 19.81C100.227 20.034 100.638 20.146 101.095 20.146ZM108.119 21.168C107.456 21.168 106.868 21.014 106.355 20.706C105.842 20.398 105.44 19.9687 105.151 19.418C104.862 18.8673 104.717 18.228 104.717 17.5C104.717 16.772 104.857 16.1327 105.137 15.582C105.426 15.0313 105.823 14.602 106.327 14.294C106.84 13.986 107.428 13.832 108.091 13.832C108.744 13.832 109.314 13.9907 109.799 14.308C110.294 14.616 110.681 15.0547 110.961 15.624C111.241 16.184 111.381 16.8373 111.381 17.584V17.71L111.171 17.906H105.333V16.884H110.765L110.303 17.08C110.266 16.6133 110.144 16.2167 109.939 15.89C109.734 15.554 109.472 15.2973 109.155 15.12C108.838 14.9427 108.483 14.854 108.091 14.854C107.662 14.854 107.27 14.9613 106.915 15.176C106.56 15.3813 106.28 15.6753 106.075 16.058C105.87 16.4407 105.767 16.884 105.767 17.388V17.57C105.767 18.074 105.865 18.522 106.061 18.914C106.266 19.2967 106.546 19.6 106.901 19.824C107.256 20.0387 107.662 20.146 108.119 20.146C108.576 20.146 108.968 20.0387 109.295 19.824C109.622 19.6093 109.878 19.3153 110.065 18.942H110.219L111.101 19.334C110.84 19.894 110.448 20.342 109.925 20.678C109.412 21.0047 108.81 21.168 108.119 21.168ZM112.076 21V14H113.098V16.03L112.79 15.764C112.949 15.2227 113.252 14.7933 113.7 14.476C114.158 14.1587 114.671 14 115.24 14H115.968V15.022H115.072C114.69 15.022 114.349 15.1153 114.05 15.302C113.761 15.4887 113.532 15.7453 113.364 16.072C113.206 16.3987 113.126 16.7813 113.126 17.22V21H112.076ZM123.512 14.098C123.512 13.5193 123.344 13.0667 123.008 12.74C122.672 12.404 122.21 12.236 121.622 12.236H118.808V11.2H121.622C122.537 11.2 123.27 11.4613 123.82 11.984C124.371 12.5067 124.646 13.2113 124.646 14.098H123.512ZM118.206 21V11.2H119.256V21H118.206ZM118.808 16.996V15.96H121.622C122.21 15.96 122.672 15.7967 123.008 15.47C123.344 15.134 123.512 14.6767 123.512 14.098H124.646C124.646 14.9753 124.371 15.68 123.82 16.212C123.27 16.7347 122.537 16.996 121.622 16.996H118.808ZM128.002 21.168C127.33 21.168 126.733 21.014 126.21 20.706C125.697 20.398 125.291 19.9687 124.992 19.418C124.703 18.8673 124.558 18.228 124.558 17.5C124.558 16.772 124.703 16.1327 124.992 15.582C125.291 15.0313 125.697 14.602 126.21 14.294C126.733 13.986 127.33 13.832 128.002 13.832C128.684 13.832 129.281 13.986 129.794 14.294C130.308 14.602 130.709 15.0313 130.998 15.582C131.297 16.1327 131.446 16.772 131.446 17.5C131.446 18.228 131.297 18.8673 130.998 19.418C130.709 19.9687 130.308 20.398 129.794 20.706C129.281 21.014 128.684 21.168 128.002 21.168ZM128.002 20.146C128.469 20.146 128.88 20.0387 129.234 19.824C129.598 19.6 129.883 19.292 130.088 18.9C130.294 18.4987 130.396 18.032 130.396 17.5C130.396 16.9587 130.294 16.492 130.088 16.1C129.883 15.708 129.598 15.4047 129.234 15.19C128.88 14.966 128.469 14.854 128.002 14.854C127.536 14.854 127.12 14.966 126.756 15.19C126.402 15.4047 126.122 15.708 125.916 16.1C125.711 16.492 125.608 16.9587 125.608 17.5C125.608 18.032 125.711 18.4987 125.916 18.9C126.122 19.292 126.402 19.6 126.756 19.824C127.12 20.0387 127.536 20.146 128.002 20.146ZM132.15 21V14H133.172V16.03L132.864 15.764C133.023 15.2227 133.326 14.7933 133.774 14.476C134.231 14.1587 134.745 14 135.314 14H136.042V15.022H135.146C134.763 15.022 134.423 15.1153 134.124 15.302C133.835 15.4887 133.606 15.7453 133.438 16.072C133.279 16.3987 133.2 16.7813 133.2 17.22V21H132.15ZM138.89 21C138.311 21 137.835 20.8133 137.462 20.44C137.088 20.0667 136.902 19.5627 136.902 18.928V12.096H137.952V18.858C137.952 19.2687 138.036 19.558 138.204 19.726C138.381 19.894 138.67 19.978 139.072 19.978H139.94L140.01 20.132V21H138.89ZM135.698 15.022V14H140.01V15.022H135.698ZM142.717 21.168C142.241 21.168 141.812 21.0747 141.429 20.888C141.056 20.7013 140.762 20.4447 140.547 20.118C140.332 19.7913 140.225 19.4133 140.225 18.984C140.225 18.3773 140.44 17.8873 140.869 17.514C141.308 17.1313 141.91 16.912 142.675 16.856L145.363 16.66V17.64L142.913 17.822C142.372 17.8593 141.966 17.976 141.695 18.172C141.434 18.368 141.303 18.6387 141.303 18.984C141.303 19.32 141.438 19.6 141.709 19.824C141.989 20.0387 142.348 20.146 142.787 20.146C143.226 20.146 143.622 20.048 143.977 19.852C144.341 19.6467 144.626 19.376 144.831 19.04C145.046 18.6947 145.153 18.312 145.153 17.892V16.758C145.153 16.198 144.98 15.7407 144.635 15.386C144.299 15.022 143.842 14.84 143.263 14.84C142.824 14.84 142.446 14.9473 142.129 15.162C141.812 15.3673 141.588 15.6707 141.457 16.072H141.303L140.379 15.736C140.603 15.1107 140.967 14.6347 141.471 14.308C141.975 13.9813 142.577 13.818 143.277 13.818C144.22 13.818 144.943 14.1027 145.447 14.672C145.951 15.232 146.203 16.03 146.203 17.066V21H145.181V18.97L145.545 19.236C145.433 19.6093 145.237 19.9453 144.957 20.244C144.677 20.5333 144.346 20.762 143.963 20.93C143.58 21.0887 143.165 21.168 142.717 21.168ZM147.46 21V10.92L148.468 10.794L148.51 10.906V21H147.46Z" fill="#8F8F8F"/>
<path d="M16.7107 0L0.509766 1.77377L0.712268 3.62393L16.9132 1.85016L16.908 1.80169L16.7107 0Z" fill="#121212"/>
<path d="M16.9199 1.84852L17.1224 3.69868L33.323 1.92524L33.5255 3.77444L49.7261 2.00067L49.721 1.95252L49.5236 0.150826L33.3233 1.92459L33.3182 1.87645L33.1208 0.0750732L16.9199 1.84852Z" fill="#121212"/>
<mask id="mask0_112_23" style="mask-type:alpha" maskUnits="userSpaceOnUse" x="0" y="0" width="50" height="24">
<rect y="0.000488281" width="49.715" height="23.9995" fill="#121212"/>
</mask>
<g mask="url(#mask0_112_23)">
<path d="M3.67266 12.3486C2.74519 12.3486 1.97112 12.5752 1.35109 13.0282C0.730424 13.4814 0.323813 14.0749 0.129333 14.8083L1.71534 15.1967H1.89281C1.97914 14.8517 2.17619 14.5631 2.48363 14.331C2.79108 14.0993 3.18196 13.9831 3.65661 13.9831C4.21727 13.9831 4.67041 14.1529 5.01573 14.4931C5.32189 14.7945 5.48428 15.1704 5.51894 15.6121L3.07413 15.8117C2.08152 15.8872 1.32125 16.1542 0.793004 16.6129C0.264121 17.0716 0 17.6837 0 18.4496C0 18.9462 0.123877 19.3885 0.371951 19.7769C0.620026 20.1653 0.962773 20.4673 1.39955 20.683C1.83633 20.8987 2.33505 21.0066 2.89602 21.0066C3.46791 21.0066 3.98845 20.8933 4.45732 20.6667C4.92651 20.44 5.32831 20.1354 5.66271 19.7522C5.67458 19.739 5.68389 19.7246 5.69544 19.7108V20.7639H7.34564V16.1517C7.34564 14.9435 7.02215 14.0075 6.37484 13.344C5.72754 12.6802 4.82702 12.3486 3.67266 12.3486ZM5.22625 18.2069C5.02086 18.5414 4.74904 18.8139 4.40886 19.0242C4.06932 19.2344 3.68903 19.3397 3.26829 19.3397C2.86906 19.3397 2.54012 19.2482 2.28113 19.0646C2.02247 18.8813 1.89281 18.6438 1.89281 18.3527C1.89281 18.0612 2.00642 17.8295 2.23299 17.6568C2.45924 17.4844 2.83152 17.3762 3.34917 17.3329L5.53145 17.1503C5.52664 17.5281 5.42587 17.8808 5.22625 18.2069Z" fill="#121212"/>
<path d="M10.6064 13.1411C10.3494 13.3195 10.1286 13.5317 9.94307 13.7744V12.5906H8.19531V20.7632H10.0564V16.5718C10.0564 16.0973 10.1427 15.6875 10.3153 15.3417C10.488 14.9967 10.7306 14.7296 11.0432 14.5406C11.3561 14.3522 11.7229 14.2578 12.1436 14.2578H13.2114V12.5906H12.4184C11.739 12.5906 11.1347 12.7742 10.6064 13.1411Z" fill="#121212"/>
<path d="M17.1272 10.4706H15.2665V12.5904H13.875V14.2576H15.2665V17.9797C15.2665 18.8319 15.5034 19.5089 15.9783 20.0106C16.4527 20.5123 17.0894 20.763 17.8875 20.763H19.3439V19.2582L19.263 19.0801H18.4215C18.0011 19.0801 17.6799 18.9722 17.4588 18.7562C17.2376 18.5408 17.1272 18.2173 17.1272 17.7855V14.2576H19.3439V12.5904H17.1272V10.4706Z" fill="#121212"/>
<path d="M26.7184 12.9068C26.1305 12.5348 25.4645 12.3486 24.72 12.3486C24.116 12.3486 23.5769 12.47 23.1019 12.713C22.6616 12.938 22.2916 13.2317 21.9857 13.587V12.5913H20.2383V24.0004H22.099V19.8729C22.3824 20.1762 22.7149 20.432 23.1019 20.6342C23.5769 20.8824 24.116 21.0066 24.72 21.0066C25.4645 21.0066 26.1305 20.8204 26.7184 20.4481C27.3063 20.0761 27.7755 19.5638 28.1263 18.9109C28.4767 18.2583 28.6516 17.511 28.6516 16.6694C28.6516 15.8281 28.4767 15.0834 28.1263 14.4363C27.7755 13.7889 27.3063 13.2792 26.7184 12.9068ZM26.4918 18.0452C26.2922 18.4442 26.0172 18.7546 25.6667 18.9754C25.3159 19.1969 24.9087 19.3076 24.445 19.3076C23.9812 19.3076 23.5688 19.1969 23.2075 18.9754C22.8458 18.7546 22.5656 18.4442 22.366 18.0452C22.1661 17.6462 22.0666 17.1872 22.0666 16.6694C22.0666 16.1517 22.1661 15.6962 22.366 15.302C22.5656 14.9085 22.8458 14.5981 23.2075 14.3715C23.5688 14.1452 23.9812 14.0316 24.445 14.0316C24.9087 14.0316 25.3159 14.1452 25.6667 14.3715C26.0172 14.5981 26.2922 14.9085 26.4918 15.302C26.6914 15.6962 26.7912 16.1517 26.7912 16.6694C26.7912 17.1872 26.6914 17.6462 26.4918 18.0452Z" fill="#121212"/>
<path d="M35.7185 12.8982C35.0924 12.5319 34.3642 12.348 33.534 12.348C32.7143 12.348 31.9916 12.5319 31.3658 12.8982C30.74 13.2654 30.2496 13.7751 29.8934 14.4277C29.5372 15.0806 29.3594 15.8275 29.3594 16.6688C29.3594 17.5217 29.5372 18.2737 29.8934 18.9263C30.2496 19.5795 30.74 20.0892 31.3658 20.4558C31.9916 20.8227 32.7143 21.006 33.534 21.006C34.3642 21.006 35.0924 20.8227 35.7185 20.4558C36.3433 20.0892 36.8347 19.5795 37.1906 18.9263C37.5465 18.2737 37.7246 17.5217 37.7246 16.6688C37.7246 15.8275 37.5465 15.0806 37.1906 14.4277C36.8347 13.7751 36.3433 13.2654 35.7185 12.8982ZM35.5725 18.077C35.3783 18.4763 35.1087 18.7838 34.7637 18.9995C34.4181 19.2155 34.0083 19.3231 33.534 19.3231C33.0702 19.3231 32.6655 19.2155 32.3202 18.9995C31.9749 18.7838 31.7053 18.4763 31.5115 18.077C31.317 17.678 31.2198 17.2087 31.2198 16.6688C31.2198 16.1299 31.317 15.6628 31.5115 15.2693C31.7053 14.8755 31.9749 14.5709 32.3202 14.3548C32.6655 14.1391 33.0702 14.0313 33.534 14.0313C34.0083 14.0313 34.4181 14.1391 34.7637 14.3548C35.1087 14.5709 35.3783 14.8755 35.5725 15.2693C35.7663 15.6628 35.8636 16.135 35.8636 16.6852C35.8636 17.2142 35.7663 17.678 35.5725 18.077Z" fill="#121212"/>
<path d="M40.9306 13.1411C40.6733 13.3195 40.4528 13.5317 40.2673 13.7744V12.5906H38.5195V20.7632H40.3806V16.5718C40.3806 16.0973 40.4669 15.6875 40.6396 15.3417C40.8119 14.9967 41.0545 14.7296 41.3674 14.5406C41.6803 14.3522 42.0471 14.2578 42.4675 14.2578H43.5356V12.5906H42.7426C42.0632 12.5906 41.4589 12.7742 40.9306 13.1411Z" fill="#121212"/>
<path d="M47.4632 10.4706H45.6025V12.5904H44.2109V14.2576H45.6025V17.9797C45.6025 18.8319 45.8393 19.5089 46.3143 20.0106C46.7886 20.5123 47.4253 20.763 48.2235 20.763H49.6798V19.2582L49.5989 19.0801H48.7575C48.3371 19.0801 48.0158 18.9722 47.7947 18.7562C47.5736 18.5408 47.4632 18.2173 47.4632 17.7855V14.2576H49.6798V12.5904H47.4632V10.4706Z" fill="#121212"/>
</g>
</g>
<defs>
<clipPath id="clip0_112_23">
<rect width="150" height="24" fill="white"/>
</clipPath>
</defs>
</svg>
