<svg width="82" height="82" viewBox="0 0 82 82" fill="none" xmlns="http://www.w3.org/2000/svg">
<path d="M72.4499 26.328C69.5457 24.4607 66.2562 23.5264 62.5793 23.5264C59.5945 23.5264 56.9315 24.135 54.5859 25.3541C52.4109 26.4843 50.5818 27.9572 49.0717 29.7408V24.7439H40.4395V82.0007H49.6319V61.2875C51.0308 62.8097 52.6731 64.093 54.5859 65.1085C56.9315 66.3527 59.5945 66.9758 62.5793 66.9758C66.2562 66.9758 69.5457 66.0428 72.4499 64.1742C75.3545 62.3068 77.6719 59.7362 79.4046 56.4594C81.1354 53.1841 82.0006 49.434 82.0006 45.21C82.0006 40.9879 81.1354 37.2516 79.4046 34.0032C77.6719 30.7547 75.3545 28.1969 72.4499 26.328ZM71.3307 52.1145C70.3446 54.1171 68.9854 55.6745 67.2546 56.7835C65.5222 57.894 63.5114 58.4494 61.2197 58.4494C58.929 58.4494 56.8916 57.894 55.1065 56.7835C53.3196 55.6745 51.936 54.1171 50.9499 52.1145C49.9632 50.1119 49.4711 47.809 49.4711 45.21C49.4711 42.6113 49.9632 40.3255 50.9499 38.3483C51.936 36.3724 53.3196 34.815 55.1065 33.6774C56.8916 32.5418 58.929 31.9722 61.2197 31.9722C63.5114 31.9722 65.5222 32.5418 67.2546 33.6774C68.9854 34.815 70.3446 36.3724 71.3307 38.3483C72.3168 40.3255 72.8091 42.6113 72.8091 45.21C72.8091 47.809 72.3168 50.1119 71.3307 52.1145Z" fill="black"/>
<path d="M31.4908 28.5193C28.2936 25.189 23.8443 23.5247 18.1427 23.5247C13.5602 23.5247 9.73779 24.6619 6.67406 26.9352C3.60875 29.2101 1.59924 32.1879 0.639505 35.8691L9.29169 38.0215C9.79106 36.0524 10.7502 34.6387 12.2692 33.4731C13.7879 32.3106 15.7181 31.7269 18.0637 31.7269C20.8332 31.7269 23.0704 32.5797 24.7765 34.2862C26.2888 35.7998 27.0916 37.6855 27.2619 39.9027L15.1858 40.9043C10.2828 41.2835 6.52695 42.6238 3.91693 44.9254C1.30501 47.2267 0 50.2993 0 54.1422C0 56.6342 0.611604 58.8536 1.83767 60.8028C3.06373 62.7519 4.75586 64.2684 6.91408 65.3506C9.07197 66.4331 11.5352 66.974 14.3063 66.974C17.1303 66.974 19.7016 66.4064 22.019 65.2688C24.3367 64.1315 26.3215 62.6025 27.9734 60.6801C28.0314 60.6127 28.0774 60.5402 28.1344 60.4719V65.7566H36.2866V42.6096C36.2866 36.5469 34.6877 31.8496 31.4908 28.5193ZM25.8167 52.9247C24.8028 54.6032 23.4588 55.9702 21.7793 57.0256C20.1011 58.0814 18.2232 58.6098 16.1455 58.6098C14.1731 58.6098 12.5476 58.1507 11.2689 57.2286C9.99017 56.3085 9.35066 55.1177 9.35066 53.6563C9.35066 52.193 9.91122 51.0306 11.0304 50.164C12.1484 49.2986 13.9873 48.7561 16.545 48.5389L27.3247 47.6213C27.3009 49.5174 26.8034 51.288 25.8167 52.9247Z" fill="black"/>
<path d="M80.0284 0L0 8.90167L1.0003 18.1867L81.0288 9.28506L81.0034 9.04182L80.0284 0Z" fill="#121212"/>
</svg>
